<mxfile host="Electron" modified="2024-02-02T22:10:29.989Z" agent="Mozilla/5.0 (X11; Linux x86_64) AppleWebKit/537.36 (KHTML, like Gecko) draw.io/22.1.16 Chrome/120.0.6099.109 Electron/28.1.1 Safari/537.36" etag="pnMeVuw-02AYddvo0Vht" version="22.1.16" type="device">
  <diagram name="Page-1" id="zz84zi7w2aZHHOXkVZlx">
    <mxGraphModel dx="843" dy="508" grid="1" gridSize="10" guides="1" tooltips="1" connect="1" arrows="1" fold="1" page="1" pageScale="1" pageWidth="850" pageHeight="1100" math="0" shadow="0">
      <root>
        <mxCell id="0" />
        <mxCell id="1" parent="0" />
        <mxCell id="QiNJm8DW8LiBt3anIEx7-3" value="" style="rounded=0;whiteSpace=wrap;html=1;" vertex="1" parent="1">
          <mxGeometry x="120" y="400" width="320" height="200" as="geometry" />
        </mxCell>
        <mxCell id="QiNJm8DW8LiBt3anIEx7-4" value="&lt;pre&gt;&lt;code&gt;div&amp;gt;ul&amp;gt;li&lt;/code&gt;&lt;/pre&gt;" style="rounded=0;whiteSpace=wrap;html=1;" vertex="1" parent="1">
          <mxGeometry x="140" y="440" width="130" height="30" as="geometry" />
        </mxCell>
        <mxCell id="QiNJm8DW8LiBt3anIEx7-6" value="Expand" style="rounded=1;whiteSpace=wrap;html=1;fillColor=#dae8fc;strokeColor=#6c8ebf;fontSize=14;" vertex="1" parent="1">
          <mxGeometry x="280" y="440" width="60" height="30" as="geometry" />
        </mxCell>
        <mxCell id="QiNJm8DW8LiBt3anIEx7-7" value="" style="rounded=0;whiteSpace=wrap;html=1;" vertex="1" parent="1">
          <mxGeometry x="140" y="500" width="200" height="70" as="geometry" />
        </mxCell>
        <mxCell id="QiNJm8DW8LiBt3anIEx7-8" value="&lt;pre&gt;&lt;h1&gt;&lt;font style=&quot;font-size: 14px;&quot;&gt;Abbreviations Syntax&lt;/font&gt;&lt;/h1&gt;&lt;/pre&gt;" style="text;html=1;strokeColor=none;fillColor=none;align=left;verticalAlign=middle;whiteSpace=wrap;rounded=0;" vertex="1" parent="1">
          <mxGeometry x="140" y="410" width="200" height="30" as="geometry" />
        </mxCell>
        <mxCell id="QiNJm8DW8LiBt3anIEx7-9" value="&lt;pre&gt;&lt;h1&gt;&lt;font style=&quot;font-size: 14px;&quot;&gt;Result&lt;/font&gt;&lt;/h1&gt;&lt;/pre&gt;" style="text;html=1;strokeColor=none;fillColor=none;align=left;verticalAlign=middle;whiteSpace=wrap;rounded=0;" vertex="1" parent="1">
          <mxGeometry x="140" y="470" width="200" height="30" as="geometry" />
        </mxCell>
      </root>
    </mxGraphModel>
  </diagram>
</mxfile>
